<?xml version="1.0" encoding="UTF-8" standalone="no"?>
<!DOCTYPE svg PUBLIC "-//W3C//DTD SVG 1.1//EN"
 "http://www.w3.org/Graphics/SVG/1.1/DTD/svg11.dtd">
<!-- Generated by graphviz version 2.40.1 (20161225.0304)
 -->
<!-- Title: G Pages: 1 -->
<svg width="1002pt" height="239pt"
 viewBox="0.00 0.00 1002.20 239.20" xmlns="http://www.w3.org/2000/svg" xmlns:xlink="http://www.w3.org/1999/xlink">
<g id="graph0" class="graph" transform="scale(1 1) rotate(0) translate(21.6 217.6)">
<title>G</title>
<polygon fill="#111111" stroke="transparent" points="-21.6,21.6 -21.6,-217.6 980.6,-217.6 980.6,21.6 -21.6,21.6"/>
<!-- App.js -->
<g id="node1" class="node">
<title>App.js</title>
<path fill="none" stroke="#c6c5fe" d="M218.8333,-105C218.8333,-105 177.1667,-105 177.1667,-105 173.3333,-105 169.5,-101.1667 169.5,-97.3333 169.5,-97.3333 169.5,-89.6667 169.5,-89.6667 169.5,-85.8333 173.3333,-82 177.1667,-82 177.1667,-82 218.8333,-82 218.8333,-82 222.6667,-82 226.5,-85.8333 226.5,-89.6667 226.5,-89.6667 226.5,-97.3333 226.5,-97.3333 226.5,-101.1667 222.6667,-105 218.8333,-105"/>
<text text-anchor="middle" x="198" y="-89.8" font-family="Arial" font-size="14.00" fill="#c6c5fe">App.js</text>
</g>
<!-- auth/index.js -->
<g id="node2" class="node">
<title>auth/index.js</title>
<path fill="none" stroke="#c6c5fe" d="M426.3333,-166C426.3333,-166 343.6667,-166 343.6667,-166 339.8333,-166 336,-162.1667 336,-158.3333 336,-158.3333 336,-150.6667 336,-150.6667 336,-146.8333 339.8333,-143 343.6667,-143 343.6667,-143 426.3333,-143 426.3333,-143 430.1667,-143 434,-146.8333 434,-150.6667 434,-150.6667 434,-158.3333 434,-158.3333 434,-162.1667 430.1667,-166 426.3333,-166"/>
<text text-anchor="middle" x="385" y="-150.8" font-family="Arial" font-size="14.00" fill="#c6c5fe">auth/index.js</text>
</g>
<!-- App.js&#45;&gt;auth/index.js -->
<g id="edge1" class="edge">
<title>App.js&#45;&gt;auth/index.js</title>
<path fill="none" stroke="#757575" d="M221.8572,-105.02C241.216,-114.015 269.3995,-126.3196 295,-134.5 304.9365,-137.6751 315.6467,-140.5298 326.0927,-143.0215"/>
<polygon fill="#757575" stroke="#757575" points="325.463,-146.4679 335.993,-145.2977 327.0315,-139.6459 325.463,-146.4679"/>
</g>
<!-- components/Home.js -->
<g id="node3" class="node">
<title>components/Home.js</title>
<path fill="none" stroke="#cfffac" d="M454.3333,-125C454.3333,-125 315.6667,-125 315.6667,-125 311.8333,-125 308,-121.1667 308,-117.3333 308,-117.3333 308,-109.6667 308,-109.6667 308,-105.8333 311.8333,-102 315.6667,-102 315.6667,-102 454.3333,-102 454.3333,-102 458.1667,-102 462,-105.8333 462,-109.6667 462,-109.6667 462,-117.3333 462,-117.3333 462,-121.1667 458.1667,-125 454.3333,-125"/>
<text text-anchor="middle" x="385" y="-109.8" font-family="Arial" font-size="14.00" fill="#cfffac">components/Home.js</text>
</g>
<!-- App.js&#45;&gt;components/Home.js -->
<g id="edge2" class="edge">
<title>App.js&#45;&gt;components/Home.js</title>
<path fill="none" stroke="#757575" d="M226.8089,-96.5812C245.8929,-98.6222 272.0292,-101.4176 297.5603,-104.1482"/>
<polygon fill="#757575" stroke="#757575" points="297.3622,-107.6468 307.6777,-105.2302 298.1067,-100.6865 297.3622,-107.6468"/>
</g>
<!-- components/Nav/index.js -->
<g id="node4" class="node">
<title>components/Nav/index.js</title>
<path fill="none" stroke="#c6c5fe" d="M467.3333,-84C467.3333,-84 302.6667,-84 302.6667,-84 298.8333,-84 295,-80.1667 295,-76.3333 295,-76.3333 295,-68.6667 295,-68.6667 295,-64.8333 298.8333,-61 302.6667,-61 302.6667,-61 467.3333,-61 467.3333,-61 471.1667,-61 475,-64.8333 475,-68.6667 475,-68.6667 475,-76.3333 475,-76.3333 475,-80.1667 471.1667,-84 467.3333,-84"/>
<text text-anchor="middle" x="385" y="-68.8" font-family="Arial" font-size="14.00" fill="#c6c5fe">components/Nav/index.js</text>
</g>
<!-- App.js&#45;&gt;components/Nav/index.js -->
<g id="edge3" class="edge">
<title>App.js&#45;&gt;components/Nav/index.js</title>
<path fill="none" stroke="#757575" d="M226.8089,-90.2648C242.7289,-88.477 263.5566,-86.138 284.8467,-83.7472"/>
<polygon fill="#757575" stroke="#757575" points="285.4321,-87.2035 294.979,-82.6093 284.6508,-80.2472 285.4321,-87.2035"/>
</g>
<!-- components/Profile.js -->
<g id="node5" class="node">
<title>components/Profile.js</title>
<path fill="none" stroke="#cfffac" d="M454.8333,-43C454.8333,-43 315.1667,-43 315.1667,-43 311.3333,-43 307.5,-39.1667 307.5,-35.3333 307.5,-35.3333 307.5,-27.6667 307.5,-27.6667 307.5,-23.8333 311.3333,-20 315.1667,-20 315.1667,-20 454.8333,-20 454.8333,-20 458.6667,-20 462.5,-23.8333 462.5,-27.6667 462.5,-27.6667 462.5,-35.3333 462.5,-35.3333 462.5,-39.1667 458.6667,-43 454.8333,-43"/>
<text text-anchor="middle" x="385" y="-27.8" font-family="Arial" font-size="14.00" fill="#cfffac">components/Profile.js</text>
</g>
<!-- App.js&#45;&gt;components/Profile.js -->
<g id="edge4" class="edge">
<title>App.js&#45;&gt;components/Profile.js</title>
<path fill="none" stroke="#757575" d="M226.7686,-85.5738C237.1304,-82.3287 248.7809,-78.2199 259,-73.5 276.0231,-65.6374 277.6117,-58.518 295,-51.5 300.1022,-49.4407 305.457,-47.5739 310.9044,-45.8849"/>
<polygon fill="#757575" stroke="#757575" points="312.1394,-49.1713 320.7754,-43.0337 310.1968,-42.4462 312.1394,-49.1713"/>
</g>
<!-- auth/Auth.js -->
<g id="node7" class="node">
<title>auth/Auth.js</title>
<path fill="none" stroke="#cfffac" d="M652.8333,-196C652.8333,-196 575.1667,-196 575.1667,-196 571.3333,-196 567.5,-192.1667 567.5,-188.3333 567.5,-188.3333 567.5,-180.6667 567.5,-180.6667 567.5,-176.8333 571.3333,-173 575.1667,-173 575.1667,-173 652.8333,-173 652.8333,-173 656.6667,-173 660.5,-176.8333 660.5,-180.6667 660.5,-180.6667 660.5,-188.3333 660.5,-188.3333 660.5,-192.1667 656.6667,-196 652.8333,-196"/>
<text text-anchor="middle" x="614" y="-180.8" font-family="Arial" font-size="14.00" fill="#cfffac">auth/Auth.js</text>
</g>
<!-- auth/index.js&#45;&gt;auth/Auth.js -->
<g id="edge6" class="edge">
<title>auth/index.js&#45;&gt;auth/Auth.js</title>
<path fill="none" stroke="#757575" d="M434.1262,-160.9358C470.1644,-165.6569 519.1964,-172.0803 556.9662,-177.0283"/>
<polygon fill="#757575" stroke="#757575" points="556.9304,-180.5535 567.3004,-178.3821 557.8397,-173.6128 556.9304,-180.5535"/>
</g>
<!-- auth/Callback.js -->
<g id="node8" class="node">
<title>auth/Callback.js</title>
<path fill="none" stroke="#cfffac" d="M665.8333,-155C665.8333,-155 562.1667,-155 562.1667,-155 558.3333,-155 554.5,-151.1667 554.5,-147.3333 554.5,-147.3333 554.5,-139.6667 554.5,-139.6667 554.5,-135.8333 558.3333,-132 562.1667,-132 562.1667,-132 665.8333,-132 665.8333,-132 669.6667,-132 673.5,-135.8333 673.5,-139.6667 673.5,-139.6667 673.5,-147.3333 673.5,-147.3333 673.5,-151.1667 669.6667,-155 665.8333,-155"/>
<text text-anchor="middle" x="614" y="-139.8" font-family="Arial" font-size="14.00" fill="#cfffac">auth/Callback.js</text>
</g>
<!-- auth/index.js&#45;&gt;auth/Callback.js -->
<g id="edge7" class="edge">
<title>auth/index.js&#45;&gt;auth/Callback.js</title>
<path fill="none" stroke="#757575" d="M434.1262,-152.1402C466.1828,-150.6004 508.5205,-148.5667 544.0676,-146.8592"/>
<polygon fill="#757575" stroke="#757575" points="544.5589,-150.3397 554.3794,-146.3639 544.223,-143.3478 544.5589,-150.3397"/>
</g>
<!-- components/Nav/NavTabs.js -->
<g id="node10" class="node">
<title>components/Nav/NavTabs.js</title>
<path fill="none" stroke="#c6c5fe" d="M707.8333,-104C707.8333,-104 520.1667,-104 520.1667,-104 516.3333,-104 512.5,-100.1667 512.5,-96.3333 512.5,-96.3333 512.5,-88.6667 512.5,-88.6667 512.5,-84.8333 516.3333,-81 520.1667,-81 520.1667,-81 707.8333,-81 707.8333,-81 711.6667,-81 715.5,-84.8333 715.5,-88.6667 715.5,-88.6667 715.5,-96.3333 715.5,-96.3333 715.5,-100.1667 711.6667,-104 707.8333,-104"/>
<text text-anchor="middle" x="614" y="-88.8" font-family="Arial" font-size="14.00" fill="#c6c5fe">components/Nav/NavTabs.js</text>
</g>
<!-- components/Nav/index.js&#45;&gt;components/Nav/NavTabs.js -->
<g id="edge9" class="edge">
<title>components/Nav/index.js&#45;&gt;components/Nav/NavTabs.js</title>
<path fill="none" stroke="#757575" d="M475.1781,-80.3758C483.9991,-81.1462 493.022,-81.9342 502.0241,-82.7204"/>
<polygon fill="#757575" stroke="#757575" points="501.9003,-86.2229 512.167,-83.6063 502.5094,-79.2494 501.9003,-86.2229"/>
</g>
<!-- components/Nav/TabPanel.js -->
<g id="node11" class="node">
<title>components/Nav/TabPanel.js</title>
<path fill="none" stroke="#cfffac" d="M709.3333,-63C709.3333,-63 518.6667,-63 518.6667,-63 514.8333,-63 511,-59.1667 511,-55.3333 511,-55.3333 511,-47.6667 511,-47.6667 511,-43.8333 514.8333,-40 518.6667,-40 518.6667,-40 709.3333,-40 709.3333,-40 713.1667,-40 717,-43.8333 717,-47.6667 717,-47.6667 717,-55.3333 717,-55.3333 717,-59.1667 713.1667,-63 709.3333,-63"/>
<text text-anchor="middle" x="614" y="-47.8" font-family="Arial" font-size="14.00" fill="#cfffac">components/Nav/TabPanel.js</text>
</g>
<!-- components/Nav/index.js&#45;&gt;components/Nav/TabPanel.js -->
<g id="edge10" class="edge">
<title>components/Nav/index.js&#45;&gt;components/Nav/TabPanel.js</title>
<path fill="none" stroke="#757575" d="M475.1781,-64.2304C483.5444,-63.4632 492.0923,-62.6793 500.6319,-61.8962"/>
<polygon fill="#757575" stroke="#757575" points="501.0027,-65.377 510.6413,-60.9783 500.3634,-58.4062 501.0027,-65.377"/>
</g>
<!-- App.test.js -->
<g id="node6" class="node">
<title>App.test.js</title>
<path fill="none" stroke="#c6c5fe" d="M84.8333,-105C84.8333,-105 16.1667,-105 16.1667,-105 12.3333,-105 8.5,-101.1667 8.5,-97.3333 8.5,-97.3333 8.5,-89.6667 8.5,-89.6667 8.5,-85.8333 12.3333,-82 16.1667,-82 16.1667,-82 84.8333,-82 84.8333,-82 88.6667,-82 92.5,-85.8333 92.5,-89.6667 92.5,-89.6667 92.5,-97.3333 92.5,-97.3333 92.5,-101.1667 88.6667,-105 84.8333,-105"/>
<text text-anchor="middle" x="50.5" y="-89.8" font-family="Arial" font-size="14.00" fill="#c6c5fe">App.test.js</text>
</g>
<!-- App.test.js&#45;&gt;App.js -->
<g id="edge5" class="edge">
<title>App.test.js&#45;&gt;App.js</title>
<path fill="none" stroke="#757575" d="M92.7676,-93.5C113.6454,-93.5 138.6672,-93.5 159.0726,-93.5"/>
<polygon fill="#757575" stroke="#757575" points="159.2762,-97.0001 169.2761,-93.5 159.2761,-90.0001 159.2762,-97.0001"/>
</g>
<!-- components/Nav/NavItems.js -->
<g id="node9" class="node">
<title>components/Nav/NavItems.js</title>
<path fill="none" stroke="#cfffac" d="M951.3333,-104C951.3333,-104 760.6667,-104 760.6667,-104 756.8333,-104 753,-100.1667 753,-96.3333 753,-96.3333 753,-88.6667 753,-88.6667 753,-84.8333 756.8333,-81 760.6667,-81 760.6667,-81 951.3333,-81 951.3333,-81 955.1667,-81 959,-84.8333 959,-88.6667 959,-88.6667 959,-96.3333 959,-96.3333 959,-100.1667 955.1667,-104 951.3333,-104"/>
<text text-anchor="middle" x="856" y="-88.8" font-family="Arial" font-size="14.00" fill="#cfffac">components/Nav/NavItems.js</text>
</g>
<!-- components/Nav/NavTabs.js&#45;&gt;components/Nav/NavItems.js -->
<g id="edge8" class="edge">
<title>components/Nav/NavTabs.js&#45;&gt;components/Nav/NavItems.js</title>
<path fill="none" stroke="#757575" d="M715.5779,-92.5C724.5059,-92.5 733.5788,-92.5 742.5952,-92.5"/>
<polygon fill="#757575" stroke="#757575" points="742.7403,-96.0001 752.7403,-92.5 742.7402,-89.0001 742.7403,-96.0001"/>
</g>
<!-- index.css -->
<g id="node12" class="node">
<title>index.css</title>
<path fill="none" stroke="#cfffac" d="M229.3333,-64C229.3333,-64 166.6667,-64 166.6667,-64 162.8333,-64 159,-60.1667 159,-56.3333 159,-56.3333 159,-48.6667 159,-48.6667 159,-44.8333 162.8333,-41 166.6667,-41 166.6667,-41 229.3333,-41 229.3333,-41 233.1667,-41 237,-44.8333 237,-48.6667 237,-48.6667 237,-56.3333 237,-56.3333 237,-60.1667 233.1667,-64 229.3333,-64"/>
<text text-anchor="middle" x="198" y="-48.8" font-family="Arial" font-size="14.00" fill="#cfffac">index.css</text>
</g>
<!-- index.js -->
<g id="node13" class="node">
<title>index.js</title>
<path fill="none" stroke="#c6c5fe" d="M75.8333,-64C75.8333,-64 25.1667,-64 25.1667,-64 21.3333,-64 17.5,-60.1667 17.5,-56.3333 17.5,-56.3333 17.5,-48.6667 17.5,-48.6667 17.5,-44.8333 21.3333,-41 25.1667,-41 25.1667,-41 75.8333,-41 75.8333,-41 79.6667,-41 83.5,-44.8333 83.5,-48.6667 83.5,-48.6667 83.5,-56.3333 83.5,-56.3333 83.5,-60.1667 79.6667,-64 75.8333,-64"/>
<text text-anchor="middle" x="50.5" y="-48.8" font-family="Arial" font-size="14.00" fill="#c6c5fe">index.js</text>
</g>
<!-- index.js&#45;&gt;App.js -->
<g id="edge11" class="edge">
<title>index.js&#45;&gt;App.js</title>
<path fill="none" stroke="#757575" d="M83.6019,-61.7012C106.1952,-67.9814 136.1902,-76.319 159.7978,-82.8811"/>
<polygon fill="#757575" stroke="#757575" points="158.912,-86.2675 169.484,-85.5735 160.7867,-79.5232 158.912,-86.2675"/>
</g>
<!-- index.js&#45;&gt;index.css -->
<g id="edge12" class="edge">
<title>index.js&#45;&gt;index.css</title>
<path fill="none" stroke="#757575" d="M83.6019,-52.5C102.799,-52.5 127.3399,-52.5 148.7657,-52.5"/>
<polygon fill="#757575" stroke="#757575" points="148.9966,-56.0001 158.9966,-52.5 148.9966,-49.0001 148.9966,-56.0001"/>
</g>
<!-- serviceWorker.js -->
<g id="node14" class="node">
<title>serviceWorker.js</title>
<path fill="none" stroke="#cfffac" d="M251.3333,-23C251.3333,-23 144.6667,-23 144.6667,-23 140.8333,-23 137,-19.1667 137,-15.3333 137,-15.3333 137,-7.6667 137,-7.6667 137,-3.8333 140.8333,0 144.6667,0 144.6667,0 251.3333,0 251.3333,0 255.1667,0 259,-3.8333 259,-7.6667 259,-7.6667 259,-15.3333 259,-15.3333 259,-19.1667 255.1667,-23 251.3333,-23"/>
<text text-anchor="middle" x="198" y="-7.8" font-family="Arial" font-size="14.00" fill="#cfffac">serviceWorker.js</text>
</g>
<!-- index.js&#45;&gt;serviceWorker.js -->
<g id="edge13" class="edge">
<title>index.js&#45;&gt;serviceWorker.js</title>
<path fill="none" stroke="#757575" d="M83.6019,-43.2988C102.2264,-38.1218 125.8805,-31.5468 146.8402,-25.7207"/>
<polygon fill="#757575" stroke="#757575" points="147.8677,-29.0679 156.565,-23.0175 145.9929,-22.3236 147.8677,-29.0679"/>
</g>
<!-- setupTests.js -->
<g id="node15" class="node">
<title>setupTests.js</title>
<path fill="none" stroke="#cfffac" d="M93.3333,-146C93.3333,-146 7.6667,-146 7.6667,-146 3.8333,-146 0,-142.1667 0,-138.3333 0,-138.3333 0,-130.6667 0,-130.6667 0,-126.8333 3.8333,-123 7.6667,-123 7.6667,-123 93.3333,-123 93.3333,-123 97.1667,-123 101,-126.8333 101,-130.6667 101,-130.6667 101,-138.3333 101,-138.3333 101,-142.1667 97.1667,-146 93.3333,-146"/>
<text text-anchor="middle" x="50.5" y="-130.8" font-family="Arial" font-size="14.00" fill="#cfffac">setupTests.js</text>
</g>
</g>
</svg>
